<svg xmlns="http://www.w3.org/2000/svg" xmlns:xlink="http://www.w3.org/1999/xlink" version="1.1" x="0px" y="0px" viewBox="0 0 90 112.5" style="enable-background:new 0 0 90 90;" xml:space="preserve"><path d="M76.2182617,69.2524414v-0.25V12.9931641H52.862793v3.8291016H19.7543945v8.8330078h2.3447266v28.340332h2.762207v9.0649414  h13.2929688V58.277832h-0.5v4.2827148H25.3613281v-8.5649414h7.4472656v-28.340332H52.862793v43.347168H13.7817383v8.0043945  h62.4365234V69.2524414z M32.3085938,53.4956055h-9.7094727v-27.840332h9.7094727V53.4956055z M20.2543945,25.1552734v-7.8330078  H52.862793v7.8330078H20.2543945z M75.7182617,76.5068359H14.2817383v-7.0043945h61.4365234V76.5068359z M75.7182617,69.0024414  H53.362793V13.4931641h22.3554688V69.0024414z"/><path d="M68.484375,21.1875h-7.8876953v40.1206055h7.8876953V21.1875z M67.984375,60.8081055h-6.8876953V21.6875h3.1938477  v34.3261719h0.5V21.6875h3.1938477V60.8081055z"/><text x="0" y="105" fill="#000000" font-size="5px" font-weight="bold" font-family="'Helvetica Neue', Helvetica, Arial-Unicode, Arial, Sans-serif">Created by iconcheese</text><text x="0" y="110" fill="#000000" font-size="5px" font-weight="bold" font-family="'Helvetica Neue', Helvetica, Arial-Unicode, Arial, Sans-serif"></text></svg>